<?xml version="1.0" encoding="UTF-8" standalone="no"?>
<!DOCTYPE svg PUBLIC "-//W3C//DTD SVG 1.1//EN"
 "http://www.w3.org/Graphics/SVG/1.1/DTD/svg11.dtd">
<!-- Generated by graphviz version 2.40.1 (20161225.0304)
 -->
<!-- Title: G Pages: 1 -->
<svg width="492pt" height="189pt"
 viewBox="0.00 0.00 492.20 189.20" xmlns="http://www.w3.org/2000/svg" xmlns:xlink="http://www.w3.org/1999/xlink">
<g id="graph0" class="graph" transform="scale(1 1) rotate(0) translate(21.6 167.6)">
<title>G</title>
<polygon fill="#111111" stroke="transparent" points="-21.6,21.6 -21.6,-167.6 470.6,-167.6 470.6,21.6 -21.6,21.6"/>
<!-- src/App.css -->
<g id="node1" class="node">
<title>src/App.css</title>
<path fill="none" stroke="#cfffac" d="M439.8333,-125C439.8333,-125 363.1667,-125 363.1667,-125 359.3333,-125 355.5,-121.1667 355.5,-117.3333 355.5,-117.3333 355.5,-109.6667 355.5,-109.6667 355.5,-105.8333 359.3333,-102 363.1667,-102 363.1667,-102 439.8333,-102 439.8333,-102 443.6667,-102 447.5,-105.8333 447.5,-109.6667 447.5,-109.6667 447.5,-117.3333 447.5,-117.3333 447.5,-121.1667 443.6667,-125 439.8333,-125"/>
<text text-anchor="middle" x="401.5" y="-109.8" font-family="Arial" font-size="14.00" fill="#cfffac">src/App.css</text>
</g>
<!-- src/App.js -->
<g id="node2" class="node">
<title>src/App.js</title>
<path fill="none" stroke="#c6c5fe" d="M271.8333,-105C271.8333,-105 207.1667,-105 207.1667,-105 203.3333,-105 199.5,-101.1667 199.5,-97.3333 199.5,-97.3333 199.5,-89.6667 199.5,-89.6667 199.5,-85.8333 203.3333,-82 207.1667,-82 207.1667,-82 271.8333,-82 271.8333,-82 275.6667,-82 279.5,-85.8333 279.5,-89.6667 279.5,-89.6667 279.5,-97.3333 279.5,-97.3333 279.5,-101.1667 275.6667,-105 271.8333,-105"/>
<text text-anchor="middle" x="239.5" y="-89.8" font-family="Arial" font-size="14.00" fill="#c6c5fe">src/App.js</text>
</g>
<!-- src/App.js&#45;&gt;src/App.css -->
<g id="edge1" class="edge">
<title>src/App.js&#45;&gt;src/App.css</title>
<path fill="none" stroke="#757575" d="M279.545,-98.4438C299.3622,-100.8904 323.6179,-103.8849 345.2633,-106.5572"/>
<polygon fill="#757575" stroke="#757575" points="344.9693,-110.0474 355.3229,-107.7991 345.8271,-103.1001 344.9693,-110.0474"/>
</g>
<!-- src/logo.svg -->
<g id="node3" class="node">
<title>src/logo.svg</title>
<path fill="none" stroke="#cfffac" d="M441.3333,-84C441.3333,-84 361.6667,-84 361.6667,-84 357.8333,-84 354,-80.1667 354,-76.3333 354,-76.3333 354,-68.6667 354,-68.6667 354,-64.8333 357.8333,-61 361.6667,-61 361.6667,-61 441.3333,-61 441.3333,-61 445.1667,-61 449,-64.8333 449,-68.6667 449,-68.6667 449,-76.3333 449,-76.3333 449,-80.1667 445.1667,-84 441.3333,-84"/>
<text text-anchor="middle" x="401.5" y="-68.8" font-family="Arial" font-size="14.00" fill="#cfffac">src/logo.svg</text>
</g>
<!-- src/App.js&#45;&gt;src/logo.svg -->
<g id="edge2" class="edge">
<title>src/App.js&#45;&gt;src/logo.svg</title>
<path fill="none" stroke="#757575" d="M279.545,-88.309C298.9578,-85.7925 322.6297,-82.7239 343.9348,-79.9621"/>
<polygon fill="#757575" stroke="#757575" points="344.3857,-83.4331 353.8528,-78.6765 343.4858,-76.4912 344.3857,-83.4331"/>
</g>
<!-- src/App.test.js -->
<g id="node4" class="node">
<title>src/App.test.js</title>
<path fill="none" stroke="#c6c5fe" d="M108.3333,-105C108.3333,-105 16.6667,-105 16.6667,-105 12.8333,-105 9,-101.1667 9,-97.3333 9,-97.3333 9,-89.6667 9,-89.6667 9,-85.8333 12.8333,-82 16.6667,-82 16.6667,-82 108.3333,-82 108.3333,-82 112.1667,-82 116,-85.8333 116,-89.6667 116,-89.6667 116,-97.3333 116,-97.3333 116,-101.1667 112.1667,-105 108.3333,-105"/>
<text text-anchor="middle" x="62.5" y="-89.8" font-family="Arial" font-size="14.00" fill="#c6c5fe">src/App.test.js</text>
</g>
<!-- src/App.test.js&#45;&gt;src/App.js -->
<g id="edge3" class="edge">
<title>src/App.test.js&#45;&gt;src/App.js</title>
<path fill="none" stroke="#757575" d="M116.0862,-93.5C139.2922,-93.5 166.3124,-93.5 189.1441,-93.5"/>
<polygon fill="#757575" stroke="#757575" points="189.3109,-97.0001 199.3109,-93.5 189.3109,-90.0001 189.3109,-97.0001"/>
</g>
<!-- src/index.css -->
<g id="node5" class="node">
<title>src/index.css</title>
<path fill="none" stroke="#cfffac" d="M282.3333,-64C282.3333,-64 196.6667,-64 196.6667,-64 192.8333,-64 189,-60.1667 189,-56.3333 189,-56.3333 189,-48.6667 189,-48.6667 189,-44.8333 192.8333,-41 196.6667,-41 196.6667,-41 282.3333,-41 282.3333,-41 286.1667,-41 290,-44.8333 290,-48.6667 290,-48.6667 290,-56.3333 290,-56.3333 290,-60.1667 286.1667,-64 282.3333,-64"/>
<text text-anchor="middle" x="239.5" y="-48.8" font-family="Arial" font-size="14.00" fill="#cfffac">src/index.css</text>
</g>
<!-- src/index.js -->
<g id="node6" class="node">
<title>src/index.js</title>
<path fill="none" stroke="#c6c5fe" d="M99.3333,-64C99.3333,-64 25.6667,-64 25.6667,-64 21.8333,-64 18,-60.1667 18,-56.3333 18,-56.3333 18,-48.6667 18,-48.6667 18,-44.8333 21.8333,-41 25.6667,-41 25.6667,-41 99.3333,-41 99.3333,-41 103.1667,-41 107,-44.8333 107,-48.6667 107,-48.6667 107,-56.3333 107,-56.3333 107,-60.1667 103.1667,-64 99.3333,-64"/>
<text text-anchor="middle" x="62.5" y="-48.8" font-family="Arial" font-size="14.00" fill="#c6c5fe">src/index.js</text>
</g>
<!-- src/index.js&#45;&gt;src/App.js -->
<g id="edge4" class="edge">
<title>src/index.js&#45;&gt;src/App.js</title>
<path fill="none" stroke="#757575" d="M107.1646,-62.846C132.2082,-68.6471 163.5173,-75.8995 189.394,-81.8935"/>
<polygon fill="#757575" stroke="#757575" points="188.8525,-85.3607 199.3844,-84.2077 190.4321,-78.5412 188.8525,-85.3607"/>
</g>
<!-- src/index.js&#45;&gt;src/index.css -->
<g id="edge5" class="edge">
<title>src/index.js&#45;&gt;src/index.css</title>
<path fill="none" stroke="#757575" d="M107.1646,-52.5C128.8427,-52.5 155.2153,-52.5 178.6955,-52.5"/>
<polygon fill="#757575" stroke="#757575" points="178.9048,-56.0001 188.9048,-52.5 178.9047,-49.0001 178.9048,-56.0001"/>
</g>
<!-- src/reportWebVitals.js -->
<g id="node7" class="node">
<title>src/reportWebVitals.js</title>
<path fill="none" stroke="#cfffac" d="M310.3333,-23C310.3333,-23 168.6667,-23 168.6667,-23 164.8333,-23 161,-19.1667 161,-15.3333 161,-15.3333 161,-7.6667 161,-7.6667 161,-3.8333 164.8333,0 168.6667,0 168.6667,0 310.3333,0 310.3333,0 314.1667,0 318,-3.8333 318,-7.6667 318,-7.6667 318,-15.3333 318,-15.3333 318,-19.1667 314.1667,-23 310.3333,-23"/>
<text text-anchor="middle" x="239.5" y="-7.8" font-family="Arial" font-size="14.00" fill="#cfffac">src/reportWebVitals.js</text>
</g>
<!-- src/index.js&#45;&gt;src/reportWebVitals.js -->
<g id="edge6" class="edge">
<title>src/index.js&#45;&gt;src/reportWebVitals.js</title>
<path fill="none" stroke="#757575" d="M107.1646,-42.154C129.1191,-37.0685 155.8886,-30.8676 179.5923,-25.3769"/>
<polygon fill="#757575" stroke="#757575" points="180.5881,-28.739 189.5403,-23.0726 179.0084,-21.9196 180.5881,-28.739"/>
</g>
<!-- src/setupTests.js -->
<g id="node8" class="node">
<title>src/setupTests.js</title>
<path fill="none" stroke="#cfffac" d="M117.3333,-146C117.3333,-146 7.6667,-146 7.6667,-146 3.8333,-146 0,-142.1667 0,-138.3333 0,-138.3333 0,-130.6667 0,-130.6667 0,-126.8333 3.8333,-123 7.6667,-123 7.6667,-123 117.3333,-123 117.3333,-123 121.1667,-123 125,-126.8333 125,-130.6667 125,-130.6667 125,-138.3333 125,-138.3333 125,-142.1667 121.1667,-146 117.3333,-146"/>
<text text-anchor="middle" x="62.5" y="-130.8" font-family="Arial" font-size="14.00" fill="#cfffac">src/setupTests.js</text>
</g>
</g>
</svg>
